<svg xmlns="http://www.w3.org/2000/svg" xmlns:xlink="http://www.w3.org/1999/xlink" viewBox="0 0 3840 1080"><defs><style>.a{fill:none;}.b{clip-path:url(#a);}.c{fill:#121212;}.d{fill:url(#b);}.ai,.e,.g,.l,.o,.t,.v,.x{isolation:isolate;}.e,.v{opacity:0.45;}.e{fill:url(#c);}.f{fill:url(#d);}.g,.x{opacity:0.35;}.g{fill:url(#e);}.h{fill:url(#f);}.i{fill:url(#g);}.j{fill:url(#h);}.k{fill:url(#i);}.l{opacity:0.1;}.m{fill:url(#j);}.n{fill:url(#k);}.o{opacity:0.2;filter:url(#l);}.p{fill:url(#m);}.q{fill:url(#n);}.r{clip-path:url(#o);}.s{clip-path:url(#p);}.ai,.t{opacity:0.15;}.t{fill:url(#q);}.u{fill:url(#r);}.v{fill:url(#s);}.w{fill:url(#t);}.x{fill:url(#u);}.y{fill:url(#v);}.z{fill:url(#w);}.aa{fill:url(#x);}.ab{fill:url(#y);}.ac{fill:url(#z);}.ad{fill:url(#aa);}.ae{fill:url(#ac);}.af{fill:url(#ad);}.ag{clip-path:url(#ae);}.ah{clip-path:url(#af);}.ai{fill:url(#ag);}</style><clipPath id="a"><rect class="a" width="3840" height="1080"/></clipPath><linearGradient id="b" x1="5021.29" y1="877.53" x2="5123.69" y2="856.62" gradientTransform="translate(25125.31 4863.4) rotate(180) scale(4.81)" gradientUnits="userSpaceOnUse"><stop offset="0" stop-color="#f44334"/><stop offset="1" stop-color="#7f0000"/></linearGradient><linearGradient id="c" x1="5473.11" y1="902.58" x2="5451.71" y2="958.74" gradientTransform="translate(21313.51 4054.37) rotate(180) scale(3.78)" gradientUnits="userSpaceOnUse"><stop offset="0"/><stop offset="1" stop-opacity="0"/></linearGradient><linearGradient id="d" x1="5347.62" y1="875.58" x2="5450.02" y2="854.67" gradientTransform="translate(21313.51 4054.37) rotate(180) scale(3.78)" xlink:href="#b"/><linearGradient id="e" x1="5416.72" y1="826.22" x2="5386.52" y2="913.88" xlink:href="#c"/><linearGradient id="f" x1="5551.57" y1="878.14" x2="5529.57" y2="852.7" gradientTransform="translate(22413.09 4240.4) rotate(180) scale(3.78)" xlink:href="#b"/><linearGradient id="g" x1="5265.53" y1="830.76" x2="5246.43" y2="773.86" gradientTransform="translate(21313.51 4054.37) rotate(180) scale(3.78)" gradientUnits="userSpaceOnUse"><stop offset="0" stop-color="#9b0000"/><stop offset="1" stop-color="#600"/></linearGradient><linearGradient id="h" x1="5298.43" y1="875.49" x2="5296.33" y2="769.9" gradientTransform="translate(21313.37 4054.29) rotate(180) scale(3.78)" xlink:href="#b"/><linearGradient id="i" x1="5371.84" y1="794.73" x2="5402.84" y2="768.02" xlink:href="#g"/><linearGradient id="j" x1="5335.19" y1="876.92" x2="5393.49" y2="732.59" gradientTransform="translate(21313.37 4054.29) rotate(180) scale(3.78)" xlink:href="#b"/><linearGradient id="k" x1="5410.49" y1="863.77" x2="5504.69" y2="880.13" gradientTransform="translate(21313.51 4054.37) rotate(180) scale(3.78)" xlink:href="#b"/><filter id="l" x="-0.15" y="-0.15" width="1.29" height="1.3" name="filter53837"><feGaussianBlur result="feGaussianBlur123" stdDeviation="28.59"/></filter><linearGradient id="m" x1="5085.14" y1="857.69" x2="5220.54" y2="870.95" xlink:href="#b"/><linearGradient id="n" x1="5503.47" y1="924.84" x2="5477.57" y2="802.85" gradientTransform="translate(22413.09 4240.4) rotate(180) scale(3.78)" xlink:href="#b"/><clipPath id="o"><polygon class="a" points="-628.04 1108.81 637.54 1091.31 752.71 248.13 -628.04 1108.81"/></clipPath><clipPath id="p"><polygon class="a" points="1356.91 1274.74 2008.54 1163.99 2039.82 1023.16 1705.7 712.1 1356.91 1274.74"/></clipPath><linearGradient id="q" x1="5402.21" y1="875.28" x2="5381.91" y2="873.36" xlink:href="#c"/><linearGradient id="r" x1="3824.02" y1="877.53" x2="3926.42" y2="856.62" gradientTransform="matrix(4.81, 0, 0, -4.81, -15525.31, 4863.4)" xlink:href="#b"/><linearGradient id="s" x1="3949.11" y1="902.58" x2="3927.71" y2="958.74" gradientTransform="matrix(3.78, 0, 0, -3.78, -11713.51, 4054.37)" xlink:href="#c"/><linearGradient id="t" x1="3823.62" y1="875.58" x2="3926.02" y2="854.67" gradientTransform="matrix(3.78, 0, 0, -3.78, -11713.51, 4054.37)" xlink:href="#b"/><linearGradient id="u" x1="3892.72" y1="826.22" x2="3862.52" y2="913.88" gradientTransform="matrix(3.78, 0, 0, -3.78, -11713.51, 4054.37)" xlink:href="#c"/><linearGradient id="v" x1="4027.57" y1="878.14" x2="4005.57" y2="852.7" gradientTransform="matrix(3.78, 0, 0, -3.78, -12813.09, 4240.4)" xlink:href="#b"/><linearGradient id="w" x1="3741.53" y1="830.76" x2="3722.43" y2="773.86" gradientTransform="matrix(3.78, 0, 0, -3.78, -11713.51, 4054.37)" xlink:href="#g"/><linearGradient id="x" x1="3774.4" y1="875.49" x2="3772.3" y2="769.9" gradientTransform="matrix(3.78, 0, 0, -3.78, -11713.37, 4054.29)" xlink:href="#b"/><linearGradient id="y" x1="3847.84" y1="794.73" x2="3878.84" y2="768.02" gradientTransform="matrix(3.78, 0, 0, -3.78, -11713.51, 4054.37)" xlink:href="#g"/><linearGradient id="z" x1="3811.16" y1="876.92" x2="3869.46" y2="732.59" gradientTransform="matrix(3.78, 0, 0, -3.78, -11713.37, 4054.29)" xlink:href="#b"/><linearGradient id="aa" x1="3886.49" y1="863.77" x2="3980.69" y2="880.13" gradientTransform="matrix(3.78, 0, 0, -3.78, -11713.51, 4054.37)" xlink:href="#b"/><linearGradient id="ac" x1="3887.87" y1="857.69" x2="4023.27" y2="870.95" gradientTransform="matrix(4.81, 0, 0, -4.81, -15525.31, 4863.4)" xlink:href="#b"/><linearGradient id="ad" x1="3968.2" y1="926.66" x2="3942.34" y2="804.85" gradientTransform="matrix(3.78, 0, 0, -3.78, -12813.09, 4240.4)" xlink:href="#b"/><clipPath id="ae"><polygon class="a" points="3087.29 248.13 3202.45 1091.31 4468.04 1108.81 3087.29 248.13"/></clipPath><clipPath id="af"><polygon class="a" points="2134.3 712.1 1800.18 1023.16 1831.46 1163.99 2483.09 1274.74 2134.3 712.1"/></clipPath><linearGradient id="ag" x1="3878.21" y1="875.28" x2="3857.91" y2="873.36" gradientTransform="matrix(3.78, 0, 0, -3.78, -11713.51, 4054.37)" xlink:href="#c"/></defs><g class="b"><rect class="c" width="3840" height="1080"/><path class="d" d="M-63.21,1074.33l1053,.45L752.5,248.12Z"/><path class="e" d="M-63.21,1074.33l1053,.45L752.5,248.12Z"/><path class="f" d="M315.66,1087.53l945.22-6.29L974,402.66Z"/><path class="g" d="M315.66,1087.53l945.22-6.29L974,402.66Z"/><path class="h" d="M1210.72,1194.26,2008.54,1164l-88.65-84L1705.7,712.09Z"/><path class="i" d="M1203.25,1281.44l659-16L1396.91,816.37Z"/><path class="j" d="M1083.6,1099.31l320.83-10.16,97.62-234.44L1307.21,629Z"/><path class="k" d="M612.6,1225.27l385.81,4,193.65-465.07Z"/><path class="l" d="M1083.6,1099.31l320.83-10.16,97.62-234.44L1307.21,629Z"/><path class="m" d="M977.57,891.23l-83.49,200.51,219.48,2.3L1307.21,629Z"/><path class="n" d="M267.15,1092.1l574.9,0L974,402.66Z"/><g class="o"><polygon points="267.2 1092.08 681.19 1092.32 739.61 631.29 267.2 1092.08"/></g><path class="p" d="M-628.28,1108.81,637.33,1091.3,752.5,248.12Z"/><path class="q" d="M1356.91,1274.75,2008.54,1164l31.28-140.83L1705.7,712.09Z"/><g class="r"><path class="a" d="M267.21,1092.09H579.9l57.62-.8,56.79-415.82Z"/></g><g class="s"><path class="a" d="M1203.25,1281.44l659-16L1396.91,816.37Z"/></g><path class="t" d="M842.07,1092.13l418.81-10.89L974,402.66Z"/><path class="u" d="M3087.5,248.12l-237.31,826.66,1053-.45Z"/><path class="v" d="M3087.5,248.12l-237.31,826.66,1053-.45Z"/><path class="w" d="M2866,402.66l-286.9,678.58,945.22,6.29Z"/><path class="x" d="M2866,402.66l-286.9,678.58,945.22,6.29Z"/><path class="y" d="M2134.3,712.09,1920.11,1080l-88.65,84,797.82,30.27Z"/><path class="z" d="M2443.09,816.37l-465.38,449.09,659,16Z"/><path class="aa" d="M2532.79,629,2338,854.71l97.62,234.44,320.83,10.16Z"/><path class="ab" d="M2647.94,764.25l193.65,465.07,385.81-4Z"/><path class="l" d="M2532.79,629,2338,854.71l97.62,234.44,320.83,10.16Z"/><path class="ac" d="M2532.79,629,2726.44,1094l219.48-2.3-83.49-200.51Z"/><path class="ad" d="M2866,402.66,2998,1092.13l574.9,0Z"/><g class="o"><polygon points="3100.39 631.29 3158.81 1092.32 3572.8 1092.08 3100.39 631.29"/></g><path class="ae" d="M3087.5,248.12l115.17,843.18,1265.61,17.51Z"/><path class="af" d="M2134.3,712.09,1692,1118l136.66,130.67,654.43,26.08Z"/><g class="ag"><path class="a" d="M3145.69,675.48l56.79,415.82,57.62.8h312.69Z"/></g><g class="ah"><path class="a" d="M2443.09,816.37l-465.38,449.09,659,16Z"/></g><path class="ai" d="M2866,402.66l-286.9,678.58,418.81,10.89Z"/></g></svg>